<?xml version="1.0" standalone="no"?>
<!DOCTYPE svg PUBLIC "-//W3C//DTD SVG 20010904//EN"
 "http://www.w3.org/TR/2001/REC-SVG-20010904/DTD/svg10.dtd">
<svg version="1.0" xmlns="http://www.w3.org/2000/svg"
 width="499.000000pt" height="104.000000pt" viewBox="0 0 499.000000 104.000000"
 preserveAspectRatio="xMidYMid meet">

<g transform="translate(0.000000,104.000000) scale(0.100000,-0.100000)"
fill="#000000" stroke="none">
<path d="M1515 727 c-114 -52 -128 -228 -24 -282 48 -25 121 -30 159 -11 40
20 40 20 40 1 0 -10 10 -15 30 -15 29 0 30 1 30 50 0 28 5 50 10 50 6 0 10 14
10 30 l0 30 -80 0 -80 0 0 -30 c0 -21 5 -30 16 -30 9 0 14 -6 12 -12 -7 -20
-63 -22 -78 -3 -17 21 -18 129 0 149 20 25 59 20 72 -9 10 -22 17 -25 65 -25
29 0 53 2 53 5 0 26 -34 77 -61 90 -44 23 -136 29 -174 12z"/>
<path d="M3916 730 c-76 -24 -101 -97 -47 -142 15 -13 56 -34 90 -47 65 -24
76 -44 26 -49 -18 -2 -31 2 -37 12 -7 12 -24 16 -63 16 -58 0 -62 -4 -44 -43
31 -68 212 -75 275 -12 29 29 31 74 7 104 -10 12 -49 31 -88 44 -46 14 -70 27
-70 37 0 21 46 26 57 6 7 -12 24 -16 63 -16 65 0 70 13 27 61 -25 29 -34 32
-98 35 -38 2 -82 -1 -98 -6z"/>
<path d="M880 701 c0 -21 5 -31 15 -31 12 0 15 -17 15 -95 0 -78 -3 -95 -15
-95 -10 0 -15 -10 -15 -31 l0 -31 124 3 c107 3 129 7 153 25 83 61 83 197 0
258 -24 18 -46 22 -153 25 l-124 3 0 -31z m198 -53 c7 -7 12 -39 12 -74 0 -67
-13 -88 -52 -82 -21 3 -23 9 -26 72 -2 38 -1 75 2 83 7 16 48 17 64 1z"/>
<path d="M1240 700 c0 -20 5 -30 15 -30 12 0 15 -17 15 -95 0 -78 -3 -95 -15
-95 -10 0 -15 -10 -15 -30 l0 -30 80 0 80 0 0 29 c0 16 -6 31 -15 35 -12 4
-15 24 -15 91 0 67 3 87 15 91 9 4 15 19 15 35 l0 29 -80 0 -80 0 0 -30z"/>
<path d="M1800 704 c0 -14 7 -32 15 -40 11 -11 15 -37 15 -89 0 -52 -4 -78
-15 -89 -8 -8 -15 -26 -15 -40 0 -26 1 -26 80 -26 l80 0 0 30 c0 20 -5 30 -15
30 -12 0 -15 17 -15 95 0 78 3 95 15 95 10 0 15 10 15 30 l0 30 -80 0 c-79 0
-80 0 -80 -26z"/>
<path d="M1980 675 c0 -53 1 -55 26 -55 17 0 28 6 31 20 3 13 14 20 29 20 24
0 24 -2 24 -90 0 -83 -1 -90 -20 -90 -16 0 -20 -7 -20 -30 l0 -30 90 0 90 0 0
29 c0 20 -6 30 -20 34 -18 5 -20 14 -20 91 0 84 1 86 24 86 15 0 26 -7 29 -20
3 -14 14 -20 31 -20 25 0 26 2 26 55 l0 55 -160 0 -160 0 0 -55z"/>
<path d="M2380 700 c0 -21 5 -30 16 -30 9 0 14 -6 11 -12 -2 -7 -19 -50 -37
-95 -19 -50 -37 -83 -46 -83 -9 0 -14 -11 -14 -30 l0 -30 61 0 61 0 -4 35 -4
35 56 -1 c30 -1 47 -3 38 -6 -12 -3 -18 -14 -18 -34 l0 -29 80 0 c80 0 80 0
80 26 0 15 -6 32 -14 38 -8 6 -31 64 -51 129 l-37 117 -89 0 -89 0 0 -30z
m120 -127 c0 -8 -12 -13 -30 -13 -35 0 -34 -3 -14 46 l17 39 13 -30 c7 -16 13
-36 14 -42z"/>
<path d="M2690 700 c0 -20 5 -30 15 -30 12 0 15 -17 15 -95 0 -78 -3 -95 -15
-95 -10 0 -15 -10 -15 -30 l0 -30 140 0 140 0 0 55 c0 54 0 55 -30 55 -23 0
-30 -4 -30 -20 0 -17 -7 -20 -45 -20 l-45 0 0 90 c0 83 1 90 20 90 16 0 20 7
20 30 l0 30 -85 0 -85 0 0 -30z"/>
<path d="M3160 700 c0 -20 5 -30 15 -30 12 0 15 -17 15 -95 0 -78 -3 -95 -15
-95 -10 0 -15 -10 -15 -30 l0 -30 85 0 85 0 0 29 c0 20 -6 30 -20 34 -11 3
-20 14 -20 25 0 17 9 20 55 24 78 7 109 32 113 91 5 81 -45 107 -205 107 l-93
0 0 -30z m180 -50 c20 -13 2 -44 -29 -48 -18 -3 -21 2 -21 27 0 33 19 41 50
21z"/>
<path d="M3490 700 c0 -20 5 -30 15 -30 12 0 15 -17 15 -95 0 -78 -3 -95 -15
-95 -10 0 -15 -10 -15 -31 l0 -31 128 3 c155 5 182 16 182 78 0 40 -17 62 -60
80 -23 9 -23 10 -4 10 32 1 56 34 52 73 -5 52 -47 68 -185 68 l-113 0 0 -30z
m185 -65 c0 -14 -8 -21 -27 -23 -24 -3 -28 0 -28 23 0 23 4 26 28 23 19 -2 27
-9 27 -23z m9 -111 c9 -23 -2 -34 -35 -34 -24 0 -29 4 -29 25 0 21 5 25 29 25
17 0 31 -6 35 -16z"/>
</g>
</svg>
